PathFileType	4	(X/Y/Z)	C:\Users\Basilio\Documents\Thesis Gigler\squatting_fais\c3dfiles\019\SLS_front_pre1\markers_experimental.trc
DataRate	CameraRate	NumFrames	NumMarkers	Units	OrigDataRate	OrigDataStartFrame	OrigNumFrames
200.000000	200.000000	4	59	mm	200.000000	203	1631
Frame#	Time	LBHD			RBHD			C7			T10			CLAV			LSHO			LUUPA			LMUPA			LDUPA			LLEP			LMEP			LRAD			LUL			LRFIN			RSHO			RUPA1			RMUPA			RDUPA			RLEP			RRAD			RUL			RUFIN			LASI			RASI			USACR			LSACR			RSACR			LTHI1			LTHI2			LTHI3			LTHI4			LLFC			LTIB1			LTIB2			LTIB3			LTIB4			LLMAL			LMMAL			LHEE			LMT1			LMT2			LMT5			RTHI			RTHI3			RTHI4			RLFC			RTIB1			RTIB2			RTIB3			RTIB4			RLMAL			RMMAL			RHEE			RMT1			RMT2			RMT5			FHD			RTHI2			RMEP			
		X1	Y1	Z1	X2	Y2	Z2	X3	Y3	Z3	X4	Y4	Z4	X5	Y5	Z5	X6	Y6	Z6	X7	Y7	Z7	X8	Y8	Z8	X9	Y9	Z9	X10	Y10	Z10	X11	Y11	Z11	X12	Y12	Z12	X13	Y13	Z13	X14	Y14	Z14	X15	Y15	Z15	X16	Y16	Z16	X17	Y17	Z17	X18	Y18	Z18	X19	Y19	Z19	X20	Y20	Z20	X21	Y21	Z21	X22	Y22	Z22	X23	Y23	Z23	X24	Y24	Z24	X25	Y25	Z25	X26	Y26	Z26	X27	Y27	Z27	X28	Y28	Z28	X29	Y29	Z29	X30	Y30	Z30	X31	Y31	Z31	X32	Y32	Z32	X33	Y33	Z33	X34	Y34	Z34	X35	Y35	Z35	X36	Y36	Z36	X37	Y37	Z37	X38	Y38	Z38	X39	Y39	Z39	X40	Y40	Z40	X41	Y41	Z41	X42	Y42	Z42	X43	Y43	Z43	X44	Y44	Z44	X45	Y45	Z45	X46	Y46	Z46	X47	Y47	Z47	X48	Y48	Z48	X49	Y49	Z49	X50	Y50	Z50	X51	Y51	Z51	X52	Y52	Z52	X53	Y53	Z53	X54	Y54	Z54	X55	Y55	Z55	X56	Y56	Z56	X57	Y57	Z57	X58	Y58	Z58	X59	Y59	Z59	

204	1.015	-408.445770263672	1687.118774414063	-844.1777954101565	-413.9040832519532	1680.337036132813	-704.3881225585939	-429.8748168945314	1504.546264648438	-763.1000976562501	-444.9812011718751	1212.032470703125	-757.9149780273439	-294.7708740234376	1463.936279296875	-769.5388793945315	-357.8519592285157	1504.087036132813	-905.982360839844	-233.6104125976563	1479.085815429688	-961.540222167969	-208.9603729248047	1473.843383789063	-919.1585083007815	-166.7994995117188	1477.405639648438	-962.2717285156252	-95.16090393066408	1450.283081054688	-995.4306640625002	-94.68318176269533	1391.703247070313	-981.904724121094	152.3958435058594	1454.8271484375	-897.4788818359377	150.9806213378907	1462.288696289063	-965.2288208007815	224.7241210937501	1470.566284179688	-890.8613281250002	-344.6308593750001	1499.81494140625	-638.3762207031251	-224.9319000244141	1429.927856445313	-537.2334594726564	-198.1373901367188	1458.243041992188	-564.6115722656251	-155.8569793701172	1428.18701171875	-533.4454345703126	-79.87451171875001	1429.927124023438	-541.0400390625001	153.177963256836	1460.328125	-628.3175048828126	167.8350677490235	1461.136474609375	-563.5608520507814	240.6450195312501	1477.517700195313	-631.1401977539064	-277.2330017089844	1014.621704101563	-887.8769531250002	-260.2440795898438	1006.086791992188	-674.7070922851564	-433.9725341796876	1080.435668945313	-763.7056274414064	-439.3966674804689	1048.257568359375	-792.395690917969	-433.7937927246095	1048.060546875	-734.8220825195314	-330.1730346679688	761.3383178710939	-972.8360595703127	-289.0585021972657	685.8920288085939	-977.4431762695315	-243.8432312011719	692.9658813476564	-962.495544433594	-312.5038452148438	630.3093872070314	-969.1206054687502	-314.5840454101563	534.1745605468751	-963.3989868164065	-289.6078491210938	386.8857421875001	-943.089294433594	-352.2004089355469	358.7208557128907	-998.4101562500002	-316.6973571777344	346.8793029785157	-975.8723754882815	-333.6278686523438	266.2855224609376	-947.5711669921877	-427.9177551269532	157.0369873046875	-979.675476074219	-405.5659484863282	152.2537384033203	-900.3919677734377	-498.9854125976564	126.0103836059571	-931.118347167969	-286.0330810546876	66.45181274414064	-924.6478271484377	-287.4964294433594	70.07646942138673	-965.9779052734377	-335.9792175292969	61.50697708129884	-1017.877746582031	-302.6941833496094	805.7481689453127	-609.0734863281251	-239.6519470214844	760.0772705078126	-642.7477416992189	-291.7899169921876	676.6192626953126	-619.7139892578126	-334.5800170898438	516.4990844726564	-653.8958129882814	-301.0014648437501	337.3581237792969	-721.9193115234376	-352.4145812988282	255.2618255615235	-666.6442871093751	-321.0371704101563	254.7533721923829	-701.6636962890626	-332.8299255371094	215.1143951416016	-743.7868652343751	-392.5166625976564	129.9227600097657	-702.0629272460939	-379.1791687011719	137.4104461669922	-775.7703247070315	-456.6213684082032	106.2844848632813	-749.4468383789064	-258.4620056152344	55.88050079345705	-780.3531494140627	-249.2252044677735	59.88589096069337	-732.7001953125001	-291.4595336914063	49.64363098144533	-678.6627807617189	-284.5077514648438	1725.599609375	-699.0299072265626	-264.1766357421876	752.4137573242189	-619.3870239257814	nan	nan	nan	
205	1.02	-408.3198852539064	1687.236694335938	-844.2968750000002	-413.7110900878907	1680.284057617188	-704.5245971679689	-429.6325073242189	1504.578491210938	-763.2145996093751	-444.7897033691407	1212.07080078125	-758.0469360351564	-294.5373840332032	1463.942749023438	-769.6253051757815	-357.6276245117188	1504.104614257813	-906.0654296875002	-233.2682647705079	1479.094482421875	-961.5731201171877	-208.3524780273438	1474.149291992188	-919.0661621093752	-166.0972900390625	1477.46630859375	-962.3062133789065	-94.8673782348633	1450.247680664063	-995.494812011719	-94.40742492675783	1391.681884765625	-981.9589843750002	152.5960693359375	1454.621948242188	-897.5566406250002	151.3415679931641	1462.1513671875	-965.295837402344	224.7183074951172	1470.472900390625	-891.065124511719	-344.3203125000001	1499.720703125	-638.4710083007814	-224.7664794921876	1429.869018554688	-537.3817749023439	-197.9613037109376	1458.498657226563	-564.6683349609376	-155.7128143310547	1428.163330078125	-533.4796752929689	-79.72650146484376	1429.88232421875	-541.1163330078126	153.4739227294922	1460.299072265625	-628.2458496093751	167.9453887939453	1461.075561523438	-563.6279907226564	240.8501434326172	1477.237548828125	-631.0703125000001	-277.1412353515626	1014.612243652344	-887.9298095703127	-260.1727905273438	1006.096618652344	-674.7514038085939	-433.8983154296876	1080.490844726563	-763.8747558593751	-439.2798461914064	1048.168090820313	-792.5615844726565	-433.7364807128907	1048.12255859375	-734.9360961914064	-330.1571960449219	761.3447265625001	-972.9223632812502	-289.0785217285157	685.9088745117189	-977.5579833984377	-243.8304138183594	692.9769287109376	-962.5889282226565	-312.5953674316407	630.3295288085939	-969.220642089844	-314.5610046386719	534.1702880859376	-963.4504394531252	-289.5645141601563	386.8930969238282	-943.1986083984377	-352.2846374511719	358.6037292480469	-998.3477172851565	-316.6586608886719	346.9020385742188	-975.9705200195315	-333.6368408203126	266.2989501953126	-947.6077880859377	-427.9226074218751	157.0331115722657	-979.7082519531252	-405.5639648437501	152.2157135009766	-900.474304199219	-498.993133544922	126.0334930419922	-931.118835449219	-285.9717102050782	66.45314788818361	-924.5843505859377	-287.4228515625001	70.06691741943361	-965.8599243164065	-335.9560241699219	61.51303100585939	-1017.825866699219	-302.7557983398438	805.7440185546877	-609.2033081054689	-239.6060791015626	760.0829467773439	-642.8364257812501	-291.8112487792969	676.6419067382814	-619.7768554687501	-334.5147094726563	516.5045776367189	-653.9934692382814	-300.9534606933594	337.3631896972657	-721.9188842773439	-352.3916320800782	255.2906341552735	-666.6573486328126	-320.9842529296876	254.7640533447266	-701.7244873046876	-332.9073181152344	215.0824127197266	-743.8323364257814	-392.5035095214845	129.930160522461	-702.1224365234376	-379.2329101562501	137.4439849853516	-775.8178710937502	-456.5163574218751	106.4917755126953	-749.4439697265626	-258.4579772949219	55.87911605834962	-780.3712158203127	-249.0418701171876	59.9203453063965	-732.5718994140626	-291.4980468750001	49.64051818847658	-678.6756591796876	-284.2250976562501	1725.480834960938	-699.0181274414064	-264.1983642578126	752.4659423828126	-619.4606323242189	nan	nan	nan	
206	1.025	-408.1069335937501	1687.302978515625	-844.4451293945315	-413.4050903320314	1680.284423828125	-704.6124877929689	-429.3293762207032	1504.676513671875	-763.3444213867189	-444.7413940429689	1212.127319335938	-758.1981811523439	-294.2338256835938	1463.977661132813	-769.7509765625002	-357.2079467773438	1504.138793945313	-906.143493652344	-233.0281982421876	1479.103149414063	-961.6360473632815	-208.0591888427735	1474.05322265625	-919.1896972656252	-165.7528686523438	1477.481689453125	-962.397888183594	-94.59838867187501	1450.213256835938	-995.5374145507815	-94.15412902832033	1391.654907226563	-982.035339355469	152.8349761962891	1454.579223632813	-897.5911865234377	151.7134704589844	1462.137084960938	-965.2075195312502	225.2779693603516	1470.335815429688	-890.8553466796877	-344.2297363281251	1499.67041015625	-638.5547485351564	-224.6813354492188	1429.863403320313	-537.4891967773439	-197.7124481201172	1458.207763671875	-564.7413330078126	-155.6273040771485	1428.136108398438	-533.5592651367189	-79.55081176757814	1429.822265625	-541.1950073242189	153.598129272461	1460.2294921875	-628.2391967773439	168.0995178222657	1461.003540039063	-563.6445312500001	241.0022583007813	1477.095336914063	-631.0379638671876	-277.0372619628907	1014.617736816406	-888.1046142578127	-260.2142639160157	1006.109191894531	-674.8703002929689	-433.8453979492189	1080.501953125	-764.0147094726564	-439.1902770996095	1048.263549804688	-792.712585449219	-433.6874389648439	1048.178833007813	-735.0711669921876	-330.1380615234376	761.3538818359376	-973.034606933594	-289.0427551269532	685.9324340820314	-977.639831542969	-243.8157043457032	692.9465942382814	-962.6714477539065	-312.5483703613282	630.2916870117189	-969.3308715820315	-314.5674133300782	534.1859741210939	-963.4879150390627	-289.6722412109376	386.9019470214845	-943.2050781250002	-352.2540893554688	358.6306457519532	-998.4033203125002	-316.6698913574219	346.8666687011719	-975.9737548828127	-333.6025695800782	266.2661132812501	-947.6705322265627	-427.8993530273439	157.0057373046875	-979.7388916015627	-405.5480041503907	152.232666015625	-900.526550292969	-498.9684143066407	126.0614852905274	-931.103942871094	-286.0573730468751	66.47634887695314	-924.647399902344	-287.4975891113282	69.95731353759767	-965.966979980469	-335.9735412597657	61.48102188110353	-1017.870666503906	-302.7449035644532	805.711120605469	-609.2467041015626	-239.612289428711	760.0753784179689	-642.9405517578126	-291.8165588378907	676.6820068359376	-619.9219360351564	-334.3749084472657	516.5416870117189	-654.0430908203126	-300.9849853515626	337.3359680175782	-722.0057983398439	-352.3967895507813	255.2915496826172	-666.7756347656251	-321.0247802734376	254.7798156738282	-701.8068847656251	-332.8816833496094	215.1227722167969	-743.8253784179689	-392.501190185547	129.9305267333985	-702.1207275390626	-379.2162780761719	137.4309997558594	-775.8347167968752	-456.1513671875001	106.2359466552735	-749.5624389648439	-258.4341430664063	55.86457824707033	-780.367614746094	-249.1761016845704	59.93194580078126	-732.6837768554689	-291.4825439453126	49.6621437072754	-678.6511230468751	-283.8173828125001	1725.37646484375	-699.0566406250001	-264.2166748046876	752.4755859375001	-619.5233764648439	nan	nan	nan	
207	1.03	-408.0384216308595	1687.47119140625	-844.4912109375002	-413.0947265625001	1680.351196289063	-704.7202758789064	-429.2230529785157	1504.67919921875	-763.5017700195314	-444.6017456054689	1212.162963867188	-758.3447265625001	-294.0216979980469	1463.999633789063	-769.8794555664065	-357.0487060546876	1504.176879882813	-906.306091308594	-232.7892761230469	1479.095703125	-961.675964355469	-207.7537384033204	1474.117065429688	-919.2176513671877	-165.5712890625	1477.500244140625	-962.4920043945315	-94.41445922851564	1450.18310546875	-995.595397949219	-93.98390960693361	1391.66455078125	-982.1094970703127	153.1485900878907	1454.480834960938	-897.5853271484377	151.8061981201172	1462.030883789063	-965.3867187500002	225.0365753173829	1470.325317382813	-891.234069824219	-344.0909118652344	1499.6689453125	-638.7019042968751	-224.5086669921876	1429.802490234375	-537.5855712890626	-197.666732788086	1458.528686523438	-564.9464721679689	-155.4583282470703	1428.085693359375	-533.6581420898439	-79.38439941406251	1429.75830078125	-541.2346191406251	153.9022674560547	1460.128540039063	-628.3215942382814	168.2851104736328	1460.912963867188	-563.6499633789064	241.2209472656251	1476.922973632813	-630.9685668945314	-276.9612426757813	1014.611938476563	-888.1892089843752	-260.1677856445313	1006.011840820313	-674.9943847656251	-433.7506408691407	1080.529907226563	-764.1804199218751	-438.9241638183595	1048.314208984375	-792.8420410156252	-433.696746826172	1048.2822265625	-735.1600341796876	-330.0802917480469	761.3060913085939	-973.1570434570315	-289.4586486816407	686.3681640625001	-978.1242675781252	-243.9726562500001	693.1605834960939	-962.809753417969	-312.5363769531251	630.3146972656251	-969.4360961914065	-314.6723327636719	534.1549682617189	-963.5831298828127	-289.7164001464844	386.9151916503907	-943.2797851562502	-352.2431640625001	358.6081237792969	-998.4670410156252	-316.6707763671876	346.8683776855469	-976.085632324219	-333.5995178222657	266.2647705078126	-947.7075195312502	-427.915740966797	157.0360717773438	-979.7576293945315	-405.5678710937501	152.3053436279297	-900.537292480469	-498.9556579589845	126.0348205566407	-931.113464355469	-285.9710388183594	66.37957000732423	-924.7142333984377	-287.5071105957032	69.94655609130861	-965.9572753906252	-336.0264892578126	61.46228790283205	-1017.894775390625	-302.7502441406251	805.833679199219	-609.3127441406251	-239.5865020751954	760.1282958984376	-643.0675659179689	-291.7600708007813	676.6732788085939	-620.0057983398439	-334.3914794921876	516.5762939453126	-654.1759033203126	-301.1099243164063	337.3733520507813	-722.1109619140626	-352.3251953125001	255.3832244873047	-666.8729248046876	-320.8839721679688	254.7367248535157	-701.8096923828126	-332.8485717773438	215.1138763427735	-743.9019775390626	-392.5863342285157	129.9777069091797	-702.1989135742189	-379.2021179199219	137.443099975586	-775.7968750000002	-456.4303283691407	105.9606475830078	-749.5462036132814	-258.4631652832032	55.86584854125978	-780.3729248046877	-249.1740264892579	59.93562316894533	-732.6696777343751	-291.5227050781251	49.66598510742189	-678.6627197265626	-283.5156250000001	1725.402709960938	-698.9641723632814	-264.2203369140626	752.4807128906251	-619.5354614257814	nan	nan	nan	
